<svg width="34" height="35" viewBox="0 0 34 35" fill="none" xmlns="http://www.w3.org/2000/svg">
<path fill-rule="evenodd" clip-rule="evenodd" d="M16.9909 4.83521C10.2599 4.83521 4.80341 10.2917 4.80341 17.0227C4.80341 23.7537 10.2599 29.2102 16.9909 29.2102C23.7219 29.2102 29.1784 23.7537 29.1784 17.0227C29.1784 10.2917 23.7219 4.83521 16.9909 4.83521ZM13.7097 12.3352C13.0338 12.3352 12.6743 12.8587 12.5397 13.128C12.377 13.4534 12.3034 13.8373 12.3034 14.2102C12.3034 14.5831 12.377 14.967 12.5397 15.2924C12.6743 15.5617 13.0338 16.0852 13.7097 16.0852C14.3855 16.0852 14.745 15.5617 14.8796 15.2924C15.0423 14.967 15.1159 14.5831 15.1159 14.2102C15.1159 13.8373 15.0423 13.4534 14.8796 13.128C14.745 12.8587 14.3855 12.3352 13.7097 12.3352ZM19.1022 13.128C19.2368 12.8587 19.5963 12.3352 20.2722 12.3352C20.948 12.3352 21.3075 12.8587 21.4421 13.128C21.6048 13.4534 21.6784 13.8373 21.6784 14.2102C21.6784 14.5831 21.6048 14.967 21.4421 15.2924C21.3075 15.5617 20.948 16.0852 20.2722 16.0852C19.5963 16.0852 19.2368 15.5617 19.1022 15.2924C18.9395 14.967 18.8659 14.5831 18.8659 14.2102C18.8659 13.8373 18.9395 13.4534 19.1022 13.128ZM21.6313 21.6631C21.9974 21.297 21.9974 20.7034 21.6313 20.3373C21.2652 19.9712 20.6716 19.9712 20.3055 20.3373C18.4749 22.1679 15.5069 22.1679 13.6763 20.3373C13.3102 19.9712 12.7166 19.9712 12.3505 20.3373C11.9844 20.7034 11.9844 21.297 12.3505 21.6631C14.9133 24.2259 19.0685 24.2259 21.6313 21.6631Z" fill="url(#paint0_linear_225_2122)"/>
<defs>
<linearGradient id="paint0_linear_225_2122" x1="28.9909" y1="35.0227" x2="2.4806" y2="6.30058" gradientUnits="userSpaceOnUse">
<stop stop-color="#FFAC34"/>
<stop offset="1" stop-color="#FEFE08"/>
</linearGradient>
</defs>
</svg>
