<svg width="35" height="34" viewBox="0 0 35 34" fill="none" xmlns="http://www.w3.org/2000/svg">
<path fill-rule="evenodd" clip-rule="evenodd" d="M14.0006 12.1046C17.6013 7.4787 23.225 4.50027 29.5443 4.5C29.7929 4.49999 30.0314 4.59876 30.2072 4.77457C30.3831 4.95039 30.4818 5.18885 30.4818 5.4375C30.4818 11.757 27.5034 17.3813 22.8774 20.9823C22.9462 21.4161 22.9818 21.8604 22.9818 22.3125C22.9818 26.9724 19.2042 30.75 14.5443 30.75C14.0265 30.75 13.6068 30.3303 13.6068 29.8125V24.6481C13.5952 24.6397 13.5838 24.6311 13.5726 24.6222C12.3826 23.6786 11.3043 22.6003 10.3607 21.4103C10.3515 21.3987 10.3426 21.3869 10.334 21.375H5.16931C4.65154 21.375 4.23181 20.9553 4.23181 20.4375C4.23181 15.7776 8.00941 12 12.6693 12C13.1218 12 13.5665 12.0357 14.0006 12.1046ZM21.1068 11.0625C19.5535 11.0625 18.2943 12.3217 18.2943 13.875C18.2943 15.4283 19.5535 16.6875 21.1068 16.6875C22.6601 16.6875 23.9193 15.4283 23.9193 13.875C23.9193 12.3217 22.6601 11.0625 21.1068 11.0625Z" fill="url(#paint0_linear_225_2106)"/>
<path d="M8.93227 24.1773C9.34728 23.8677 9.43274 23.2803 9.12314 22.8653C8.81355 22.4503 8.22614 22.3648 7.81113 22.6744C6.20942 23.8692 5.16931 25.782 5.16931 27.9374C5.16931 28.2818 5.19593 28.6207 5.24738 28.9519C5.31005 29.3552 5.62649 29.6717 6.02984 29.7343C6.36102 29.7858 6.69987 29.8124 7.04431 29.8124C9.19974 29.8124 11.1125 28.7723 12.3073 27.1706C12.6169 26.7556 12.5314 26.1682 12.1164 25.8586C11.7014 25.549 11.114 25.6344 10.8044 26.0494C9.94823 27.1972 8.58283 27.9374 7.04431 27.9374C7.04431 26.3989 7.78454 25.0335 8.93227 24.1773Z" fill="url(#paint1_linear_225_2106)"/>
<defs>
<linearGradient id="paint0_linear_225_2106" x1="30.3568" y1="37.5477" x2="1.6918" y2="6.08648" gradientUnits="userSpaceOnUse">
<stop stop-color="#F06543"/>
<stop offset="1" stop-color="#FFBE3D"/>
</linearGradient>
<linearGradient id="paint1_linear_225_2106" x1="30.3568" y1="37.5477" x2="1.6918" y2="6.08648" gradientUnits="userSpaceOnUse">
<stop stop-color="#F06543"/>
<stop offset="1" stop-color="#FFBE3D"/>
</linearGradient>
</defs>
</svg>
