<svg width="34" height="34" viewBox="0 0 34 34" fill="none" xmlns="http://www.w3.org/2000/svg">
<path d="M15.0704 12.9328C15.3544 12.7072 15.6918 12.5431 16.0534 12.4406V15.9343C15.6849 15.8297 15.3484 15.663 15.0704 15.4422C14.5782 15.0512 14.3878 14.5912 14.3878 14.1875C14.3878 13.7838 14.5782 13.3238 15.0704 12.9328Z" fill="url(#paint0_linear_225_2098)"/>
<path d="M17.9284 21.577V18.0479C18.3625 18.1535 18.7581 18.3322 19.0801 18.5737C19.6132 18.9735 19.8034 19.4311 19.8034 19.8125C19.8034 20.1939 19.6132 20.6514 19.0801 21.0512C18.7581 21.2927 18.3625 21.4715 17.9284 21.577Z" fill="url(#paint1_linear_225_2098)"/>
<path fill-rule="evenodd" clip-rule="evenodd" d="M16.9909 4.8125C10.2599 4.8125 4.80341 10.269 4.80341 17C4.80341 23.731 10.2599 29.1875 16.9909 29.1875C23.7219 29.1875 29.1784 23.731 29.1784 17C29.1784 10.269 23.7219 4.8125 16.9909 4.8125ZM17.9284 9.5C17.9284 8.98223 17.5087 8.5625 16.9909 8.5625C16.4731 8.5625 16.0534 8.98223 16.0534 9.5V10.5195C15.2698 10.6584 14.5226 10.9734 13.9041 11.4647C13.0137 12.1721 12.5128 13.1516 12.5128 14.1875C12.5128 15.2234 13.0137 16.2029 13.9041 16.9103C14.5322 17.4092 15.2817 17.7188 16.0534 17.8554V21.5769C15.6195 21.4714 15.2239 21.2926 14.902 21.0512L13.8034 20.2272C13.3892 19.9166 12.8016 20.0005 12.4909 20.4147C12.1802 20.8289 12.2642 21.4165 12.6784 21.7272L13.777 22.5512C14.4435 23.0511 15.2383 23.357 16.0534 23.4879V24.5C16.0534 25.0178 16.4731 25.4375 16.9909 25.4375C17.5087 25.4375 17.9284 25.0178 17.9284 24.5V23.488C18.7436 23.357 19.5385 23.0511 20.2051 22.5512C21.1364 21.8527 21.6784 20.8706 21.6784 19.8125C21.6784 18.7543 21.1364 17.7723 20.2051 17.0737C19.5385 16.5738 18.7436 16.2679 17.9284 16.137V12.4407C18.2899 12.5432 18.6271 12.7073 18.9111 12.9328L19.4297 13.3448C19.8351 13.6669 20.4248 13.5993 20.7469 13.1939C21.0689 12.7885 21.0014 12.1987 20.5959 11.8767L20.0773 11.4647C19.459 10.9735 18.7119 10.6585 17.9284 10.5196V9.5Z" fill="url(#paint2_linear_225_2098)"/>
<defs>
<linearGradient id="paint0_linear_225_2098" x1="28.9909" y1="36" x2="7.94286" y2="1.24015" gradientUnits="userSpaceOnUse">
<stop stop-color="#378B29"/>
<stop offset="1" stop-color="#74D680"/>
</linearGradient>
<linearGradient id="paint1_linear_225_2098" x1="28.9909" y1="36" x2="7.94286" y2="1.24015" gradientUnits="userSpaceOnUse">
<stop stop-color="#378B29"/>
<stop offset="1" stop-color="#74D680"/>
</linearGradient>
<linearGradient id="paint2_linear_225_2098" x1="28.9909" y1="36" x2="7.94286" y2="1.24015" gradientUnits="userSpaceOnUse">
<stop stop-color="#378B29"/>
<stop offset="1" stop-color="#74D680"/>
</linearGradient>
</defs>
</svg>
