<svg width="34" height="35" viewBox="0 0 34 35" fill="none" xmlns="http://www.w3.org/2000/svg">
<path d="M17 20.7727C19.0711 20.7727 20.75 19.0938 20.75 17.0227C20.75 14.9516 19.0711 13.2727 17 13.2727C14.9289 13.2727 13.25 14.9516 13.25 17.0227C13.25 19.0938 14.9289 20.7727 17 20.7727Z" fill="url(#paint0_linear_225_2114)"/>
<path fill-rule="evenodd" clip-rule="evenodd" d="M3.65426 16.3311C5.51333 10.7423 10.7849 6.71021 17.0006 6.71021C23.2135 6.71021 28.4831 10.7386 30.3444 16.3233C30.4949 16.7746 30.495 17.2629 30.3448 17.7143C28.4858 23.3031 23.2142 27.3352 16.9985 27.3352C10.7856 27.3352 5.51605 23.3068 3.65467 17.7221C3.50425 17.2708 3.5041 16.7825 3.65426 16.3311ZM23.5625 17.0227C23.5625 20.6471 20.6244 23.5852 17 23.5852C13.3756 23.5852 10.4375 20.6471 10.4375 17.0227C10.4375 13.3983 13.3756 10.4602 17 10.4602C20.6244 10.4602 23.5625 13.3983 23.5625 17.0227Z" fill="url(#paint1_linear_225_2114)"/>
<defs>
<linearGradient id="paint0_linear_225_2114" x1="27.9998" y1="35.0227" x2="10.6489" y2="0.208838" gradientUnits="userSpaceOnUse">
<stop stop-color="#FF0000"/>
<stop offset="1" stop-color="#FF7878"/>
</linearGradient>
<linearGradient id="paint1_linear_225_2114" x1="27.9998" y1="35.0227" x2="10.6489" y2="0.208838" gradientUnits="userSpaceOnUse">
<stop stop-color="#FF0000"/>
<stop offset="1" stop-color="#FF7878"/>
</linearGradient>
</defs>
</svg>
