<svg width="35" height="35" viewBox="0 0 35 35" fill="none" xmlns="http://www.w3.org/2000/svg">
<path fill-rule="evenodd" clip-rule="evenodd" d="M17.9818 4.83521C13.322 4.83521 9.54446 8.61267 9.54433 13.2725L9.54408 14.2102C9.54408 16.8641 8.54281 19.282 6.89589 21.1101C6.68777 21.3411 6.60773 21.6603 6.68222 21.9621C6.75672 22.264 6.97605 22.5094 7.26775 22.617C9.1979 23.3296 11.2185 23.8551 13.3073 24.1718C13.2987 24.2877 13.2943 24.4047 13.2943 24.5227C13.2943 27.1115 15.393 29.2102 17.9818 29.2102C20.5707 29.2102 22.6693 27.1115 22.6693 24.5227C22.6693 24.4047 22.6649 24.2877 22.6563 24.1717C24.745 23.855 26.7654 23.3295 28.6954 22.617C28.9871 22.5094 29.2064 22.264 29.2809 21.9621C29.3554 21.6603 29.2754 21.3411 29.0673 21.1101C27.4204 19.282 26.4191 16.8641 26.4191 14.2102V13.3342L26.4193 13.2727C26.4193 8.6128 22.6417 4.83521 17.9818 4.83521ZM15.1693 24.5227C15.1693 24.4805 15.1703 24.4385 15.1721 24.3968C16.0976 24.4801 17.0348 24.5227 17.9816 24.5227C18.9286 24.5227 19.8658 24.4801 20.7916 24.3967C20.7934 24.4385 20.7943 24.4805 20.7943 24.5227C20.7943 26.076 19.5351 27.3352 17.9818 27.3352C16.4285 27.3352 15.1693 26.076 15.1693 24.5227ZM16.1068 11.3977C15.589 11.3977 15.1693 11.8174 15.1693 12.3352C15.1693 12.853 15.589 13.2727 16.1068 13.2727H18.1051L15.3268 17.4402C15.135 17.7279 15.1171 18.0977 15.2802 18.4026C15.4434 18.7074 15.7611 18.8977 16.1068 18.8977H19.8568C20.3746 18.8977 20.7943 18.478 20.7943 17.9602C20.7943 17.4424 20.3746 17.0227 19.8568 17.0227H17.8585L20.6369 12.8552C20.8286 12.5676 20.8465 12.1977 20.6834 11.8928C20.5202 11.588 20.2026 11.3977 19.8568 11.3977H16.1068Z" fill="url(#paint0_linear_225_2130)"/>
<defs>
<linearGradient id="paint0_linear_225_2130" x1="29.2004" y1="35.5224" x2="2.47271" y2="8.2595" gradientUnits="userSpaceOnUse">
<stop stop-color="#C86FC9"/>
<stop offset="1" stop-color="#F79AD3"/>
</linearGradient>
</defs>
</svg>
