<svg width="34" height="34" viewBox="0 0 34 34" fill="none" xmlns="http://www.w3.org/2000/svg">
<path fill-rule="evenodd" clip-rule="evenodd" d="M4.8125 4.8125C4.29473 4.8125 3.875 5.23223 3.875 5.75C3.875 6.26777 4.29473 6.6875 4.8125 6.6875H5.75V19.8125C5.75 21.8836 7.42893 23.5625 9.5 23.5625H11.0118L9.54811 27.9535C9.38438 28.4447 9.64984 28.9757 10.141 29.1394C10.6322 29.3031 11.1632 29.0377 11.3269 28.5465L11.7382 27.3125H22.2618L22.6731 28.5465C22.8368 29.0377 23.3678 29.3031 23.859 29.1394C24.3502 28.9757 24.6156 28.4447 24.4519 27.9535L22.9882 23.5625H24.5C26.5711 23.5625 28.25 21.8836 28.25 19.8125V6.6875H29.1875C29.7053 6.6875 30.125 6.26777 30.125 5.75C30.125 5.23223 29.7053 4.8125 29.1875 4.8125H4.8125ZM12.9882 23.5625H21.0118L21.6368 25.4375H12.3632L12.9882 23.5625ZM23.0944 12.3183C23.5426 12.0591 23.6958 11.4856 23.4365 11.0374C23.1772 10.5892 22.6038 10.4361 22.1556 10.6953C20.4471 11.6836 18.9396 12.9796 17.7084 14.5077L15.7879 12.5872C15.4218 12.2211 14.8282 12.2211 14.4621 12.5872L10.7121 16.3372C10.346 16.7033 10.346 17.2969 10.7121 17.663C11.0782 18.0291 11.6718 18.0291 12.0379 17.663L15.125 14.5759L17.1466 16.5975C17.3428 16.7937 17.6159 16.8929 17.8923 16.8684C18.1687 16.8439 18.42 16.6982 18.5787 16.4706C19.7587 14.7771 21.3018 13.3553 23.0944 12.3183Z" fill="url(#paint0_linear_225_2090)"/>
<defs>
<linearGradient id="paint0_linear_225_2090" x1="30" y1="35.5" x2="2" y2="1.5" gradientUnits="userSpaceOnUse">
<stop stop-color="#045FEC"/>
<stop offset="1" stop-color="#0BC2FB"/>
</linearGradient>
</defs>
</svg>
