<svg width="100" height="100" viewBox="0 0 100 100" fill="none" xmlns="http://www.w3.org/2000/svg">
<rect width="100" height="100" rx="15" fill="#6889FF"/>
<path d="M33.12 24.6C33.44 24.2267 33.76 24.04 34.08 24.04C34.4 24.04 34.6933 24.1733 34.96 24.44C35.28 24.7067 35.44 25.0533 35.44 25.48C35.44 25.8533 35.1733 26.3867 34.64 27.08C32.0267 30.92 29.4933 36.12 27.04 42.68C24.5867 49.24 23.36 54.92 23.36 59.72C23.36 64.4667 24.1867 67.9333 25.84 70.12C27.4933 72.3067 29.36 73.4 31.44 73.4C33.5733 73.4 35.76 72.3067 38 70.12C40.24 67.9333 42.3733 65.1067 44.4 61.64C47.9733 55.3467 50.6667 50.0667 52.48 45.8C53.12 44.4133 53.6267 43.72 54 43.72C54.3733 43.72 54.6933 43.8533 54.96 44.12C55.28 44.3867 55.44 44.6267 55.44 44.84C55.44 45.0533 55.28 46.12 54.96 48.04C54.6933 49.96 54.56 52.3333 54.56 55.16C54.56 67.8 58.2933 74.12 65.76 74.12C68.16 74.12 70.3467 73.4267 72.32 72.04C74.2933 70.6 75.84 68.84 76.96 66.76C79.3067 62.3333 80.48 58.4933 80.48 55.24C80.48 51.9333 79.76 48.44 78.32 44.76C76.9333 41.08 74.8267 37.7733 72 34.84C69.2267 31.8533 66.1867 30.3067 62.88 30.2C61.92 30.1467 61.44 29.7733 61.44 29.08C61.44 27.96 62.4 26.6533 64.32 25.16C66.24 23.6133 68.3733 22.84 70.72 22.84C74.6133 22.84 78.0267 24.84 80.96 28.84C83.9467 32.7867 85.44 38.52 85.44 46.04C85.44 51.16 84.56 56.2 82.8 61.16C81.04 66.0667 78.8 70.28 76.08 73.8C73.4133 77.2667 70.4533 80.0667 67.2 82.2C64 84.3867 60.9867 85.48 58.16 85.48C56.2933 85.48 54.6933 84.9733 53.36 83.96C52.0267 83 51.0133 81.7467 50.32 80.2C49.1467 77.32 48.56 74.28 48.56 71.08C48.56 68.2533 48.7733 65.7733 49.2 63.64C49.6267 61.5067 49.9467 59.9333 50.16 58.92C50.3733 57.8533 50.48 57.24 50.48 57.08C50.48 56.8667 50.4533 56.76 50.4 56.76C50.08 56.76 49.5733 57.5067 48.88 59C48.1867 60.44 47.5733 61.6667 47.04 62.68C43.68 69.0267 39.52 74.8667 34.56 80.2C31.04 83.9867 27.44 85.88 23.76 85.88C21.8933 85.88 19.92 85 17.84 83.24C16.72 82.28 15.8133 80.84 15.12 78.92C14.4267 76.9467 14.08 74.4667 14.08 71.48C14.08 68.4933 14.8267 64.4667 16.32 59.4C17.8667 54.3333 20.0267 48.8933 22.8 43.08C26.6933 34.8133 30.1333 28.6533 33.12 24.6Z" fill="#F8F7FF"/>
</svg>
